<svg xmlns="http://www.w3.org/2000/svg" viewBox="0 0 330 232"><defs><style>.cls-1{fill:#1a1a1a;}.cls-2{fill:#333;}.cls-3{fill:#4d4d4d;}.cls-4{fill:#ccc;}.cls-5{fill:#666;}.cls-6{fill:#c6148b;}.cls-7{fill:#39b54a;}.cls-8{fill:#fcee21;}.cls-9{fill:#29abe2;}.cls-10{fill:#fff;}.cls-11{fill:#c1272d;}.cls-12{fill:#61045f;}</style></defs><title>Laptop</title><g id="Layer_2" data-name="Layer 2"><g id="Layer_1-2" data-name="Layer 1"><path class="cls-1" d="M0,227v5H266l64-77V3a4,4,0,0,0-3-3H70L63,3,254,111Z"/><path class="cls-2" d="M64,3H324a2,2,0,0,1,2,2V154a0,0,0,0,1,0,0H62a0,0,0,0,1,0,0V5A2,2,0,0,1,64,3Z"/><polygon class="cls-3" points="264.15 227 0.15 227 61.85 153 325.85 153 264.15 227"/><polygon class="cls-4" points="301.26 169.29 267.26 169.29 275 160.01 309 160.01 301.26 169.29"/><polygon class="cls-4" points="72.93 169.29 59.93 169.29 67.67 160.01 80.67 160.01 72.93 169.29"/><polygon class="cls-4" points="93.85 169.29 80.85 169.29 88.59 160.01 101.59 160.01 93.85 169.29"/><polygon class="cls-4" points="114.76 169.29 101.76 169.29 109.5 160.01 122.5 160.01 114.76 169.29"/><polygon class="cls-4" points="135.68 169.29 122.68 169.29 130.42 160.01 143.42 160.01 135.68 169.29"/><polygon class="cls-4" points="177.51 169.29 164.51 169.29 172.25 160.01 185.25 160.01 177.51 169.29"/><polygon class="cls-4" points="198.43 169.29 185.43 169.29 193.17 160.01 206.17 160.01 198.43 169.29"/><polygon class="cls-4" points="219.35 169.29 206.35 169.29 214.09 160.01 227.09 160.01 219.35 169.29"/><polygon class="cls-4" points="240.26 169.29 227.26 169.29 235 160.01 248 160.01 240.26 169.29"/><polygon class="cls-4" points="156.6 169.29 143.6 169.29 151.34 160.01 164.34 160.01 156.6 169.29"/><polygon class="cls-4" points="261.26 169.29 248.26 169.29 256 160.01 269 160.01 261.26 169.29"/><polygon class="cls-4" points="74.14 181.43 50.14 181.43 57.88 172.15 81.88 172.15 74.14 181.43"/><polygon class="cls-4" points="93.81 181.43 80.81 181.43 88.55 172.15 101.55 172.15 93.81 181.43"/><polygon class="cls-4" points="114.73 181.43 101.73 181.43 109.47 172.15 122.47 172.15 114.73 181.43"/><polygon class="cls-4" points="135.64 181.43 122.64 181.43 130.38 172.15 143.38 172.15 135.64 181.43"/><polygon class="cls-4" points="156.56 181.43 143.56 181.43 151.3 172.15 164.3 172.15 156.56 181.43"/><polygon class="cls-4" points="198.39 181.43 185.39 181.43 193.13 172.15 206.13 172.15 198.39 181.43"/><polygon class="cls-4" points="219.31 181.43 206.31 181.43 214.05 172.15 227.05 172.15 219.31 181.43"/><polygon class="cls-4" points="240.23 181.43 227.23 181.43 234.97 172.15 247.97 172.15 240.23 181.43"/><polygon class="cls-4" points="261.14 181.43 248.14 181.43 255.88 172.15 268.88 172.15 261.14 181.43"/><polygon class="cls-4" points="177.48 181.43 164.48 181.43 172.22 172.15 185.22 172.15 177.48 181.43"/><polygon class="cls-4" points="183.43 194.28 108.43 194.28 116.17 185 191.17 185 183.43 194.28"/><polygon class="cls-4" points="65.43 194.28 39.43 194.28 47.17 185 73.17 185 65.43 194.28"/><polygon class="cls-4" points="258.07 194.28 242.78 194.28 250.52 185 265.81 185 258.07 194.28"/><polygon class="cls-4" points="276.43 194.28 263.43 194.28 267.6 189.29 280.6 189.29 276.43 194.28"/><polygon class="cls-4" points="237.43 194.28 224.43 194.28 228.59 189.29 241.59 189.29 237.43 194.28"/><polygon class="cls-4" points="99.43 194.28 73.43 194.28 81.17 185 107.17 185 99.43 194.28"/><polygon class="cls-4" points="218.43 194.28 192.43 194.28 200.17 185 226.17 185 218.43 194.28"/><path class="cls-5" d="M177.53,199h-56a7.32,7.32,0,0,0-4.95,2.34l-14.94,17.92c-1.08,1.29-.61,2.34,1.05,2.34h56a7.32,7.32,0,0,0,4.95-2.34l14.94-17.92C179.66,200,179.19,199,177.53,199Z"/><rect class="cls-6" x="74" y="17" width="241" height="123"/><rect class="cls-2" x="81" y="27" width="107" height="97"/><rect class="cls-7" x="87" y="74" width="59" height="3"/><rect class="cls-7" x="91" y="66" width="19" height="3"/><rect class="cls-8" x="88" y="45" width="10" height="3"/><rect class="cls-9" x="100" y="45" width="10" height="3"/><rect class="cls-7" x="113" y="45" width="33" height="3"/><rect class="cls-7" x="148" y="74" width="33" height="3"/><rect class="cls-7" x="91" y="52" width="47.87" height="3"/><rect class="cls-7" x="141.74" y="52" width="18.19" height="3"/><rect class="cls-7" x="162.81" y="52" width="18.19" height="3"/><rect class="cls-7" x="91" y="59" width="58.37" height="3"/><rect class="cls-7" x="151.35" y="59" width="32.65" height="3"/><rect class="cls-2" x="196" y="36" width="108" height="79"/><rect class="cls-10" x="200" y="51" width="19" height="3"/><rect class="cls-10" x="200" y="58" width="19" height="3"/><rect class="cls-10" x="200" y="65" width="32" height="3"/><rect class="cls-10" x="200" y="72" width="32" height="3"/><rect class="cls-10" x="235" y="72" width="32" height="3"/><rect class="cls-11" x="200" y="79" width="21" height="3"/><rect class="cls-10" x="225" y="79" width="10" height="3"/><rect class="cls-10" x="238" y="79" width="27" height="3"/><rect class="cls-10" x="200" y="85" width="9" height="3"/><rect class="cls-10" x="212" y="85" width="32" height="3"/><rect class="cls-12" x="81" y="27" width="107" height="8"/><rect class="cls-12" x="196" y="36" width="108" height="8"/></g></g></svg>