<svg xmlns="http://www.w3.org/2000/svg" viewBox="0 0 109 109"><defs><style>.cls-1{fill:#6cc3b7;}.cls-2{fill:#fff;}</style></defs><title>Camera</title><g id="Layer_2" data-name="Layer 2"><g id="Layer_1-2" data-name="Layer 1"><circle class="cls-1" cx="54.5" cy="54.5" r="54.5"/><path class="cls-2" d="M47,31H62.8c1.11,1,2.93,1.78,3.19,2.94.84,3.85,3.26,4.31,6.45,3.85a7.09,7.09,0,0,1,1.32,0,6.43,6.43,0,0,1,6.43,6.13q.22,12.5,0,25A6.33,6.33,0,0,1,73.71,75q-18.81.07-37.62,0a6.33,6.33,0,0,1-6.47-6.08q-.23-12.5,0-25A6.42,6.42,0,0,1,36,37.79a35.3,35.3,0,0,1,4.51,0,1.83,1.83,0,0,0,2.25-1.62A7.12,7.12,0,0,1,47,31ZM66.73,56.39A11.83,11.83,0,1,0,55,68.25,11.81,11.81,0,0,0,66.73,56.39Z"/><path class="cls-2" d="M47.32,56.34A7.58,7.58,0,1,1,54.88,64,7.62,7.62,0,0,1,47.32,56.34Z"/></g></g></svg>