<svg xmlns="http://www.w3.org/2000/svg" viewBox="0 0 82.25 71"><defs><style>.cls-1{fill:#fff;}.cls-2{fill:none;}</style></defs><title>Flip</title><g id="Layer_2" data-name="Layer 2"><g id="Layer_1-2" data-name="Layer 1"><path class="cls-1" d="M48.5,71a35.38,35.38,0,0,1-19.23-5.66l3.25-5a29.52,29.52,0,0,0,44.21-16.2l2.49-8.17,7.57,18.95-5.57,2.23-1.71-4.27A35.28,35.28,0,0,1,48.5,71Z" transform="translate(-4.54)"/><path class="cls-2" d="M0,24" transform="translate(-4.54)"/><path class="cls-1" d="M19.69,44.06,4.54,35.62l2.92-5.24,5.6,3.12A35.5,35.5,0,0,1,70.79,7.87L67,12.54A29.16,29.16,0,0,0,48.5,6,29.53,29.53,0,0,0,19,35.5c0,1,0,1.92.14,2.86Z" transform="translate(-4.54)"/><circle class="cls-1" cx="31.46" cy="29" r="3"/><circle class="cls-1" cx="55.46" cy="29" r="3"/><path class="cls-1" d="M36,41c.89,6.23,5.92,11,12,11s11.11-4.77,12-11Z" transform="translate(-4.54)"/></g></g></svg>