<svg xmlns="http://www.w3.org/2000/svg" xmlns:xlink="http://www.w3.org/1999/xlink" viewBox="0 0 299.17 344"><defs><style>.cls-1{fill:#6cc3b7;}.cls-2{fill:#f4f9f8;}.cls-3{fill:url(#linear-gradient);}.cls-4{fill:#fff;}</style><linearGradient id="linear-gradient" x1="213.17" y1="180" x2="299.17" y2="180" gradientUnits="userSpaceOnUse"><stop offset="0.35" stop-color="#4a838f"/><stop offset="1" stop-color="#6cc3b7"/></linearGradient></defs><title>Logo</title><g id="Layer_2" data-name="Layer 2"><g id="Layer_1-2" data-name="Layer 1"><rect class="cls-1" x="86.17" y="131" width="213" height="213"/><circle class="cls-2" cx="259.67" cy="184.5" r="25.5"/><polygon class="cls-3" points="213.17 229 299.17 131 213.17 131 213.17 229"/><rect class="cls-4" width="213" height="229"/><path class="cls-1" d="M31.31,34.7H181.69V195.14H168.9V187H44.1v8.18H31.31ZM168.9,47H44.1v127.7H168.9Zm-119,41.77A151.42,151.42,0,0,0,88.26,49L99.51,54.3Q96.35,59,92.69,63.51H153V73.57q-12.53,15.18-32,27.37,18,6.05,44.07,9.46a96.43,96.43,0,0,0-5.63,12.79q-30.26-6.91-51.15-15.6Q87.49,117,53,125.91A72.07,72.07,0,0,0,47.17,115q29.92-6.14,49.45-14.07a97.6,97.6,0,0,1-20.72-19A225.23,225.23,0,0,1,58.25,97.1Q54.84,93.52,49.89,88.74Zm12.28,66L65.75,143q42.62,5.63,82,13.13l-4.6,13Q105.48,160.7,62.17,154.73Zm17.9-22.68,3.41-11.42q25.06,3.75,52.69,8.52l-3.58,11.94Q104.62,135.46,80.07,132.05Zm56.1-58H83.57a5.49,5.49,0,0,1-.51.6,78.73,78.73,0,0,0,25,20.89Q125.68,86.1,136.17,74.08Z"/><path class="cls-2" d="M265.89,276.65c-21.52-5.91-34.68,21.27-52.62,21.27S187,251.84,142.72,253c-25.17.67-44.53,30-56.55,55.21V344h213V305.93C287.81,292.1,275.18,279.2,265.89,276.65Z"/></g></g></svg>